Coordinates
version=1
nRows=11
nColumns=40
inDegrees=yes

Units are S.I. units (second, meters, Newtons, ...)
Angles are in degrees.

endheader
time	pelvis_tilt	pelvis_list	pelvis_rotation	pelvis_tx	pelvis_ty	pelvis_tz	hip_flexion_r	hip_adduction_r	hip_rotation_r	knee_angle_r	knee_angle_r_beta	ankle_angle_r	subtalar_angle_r	mtp_angle_r	hip_flexion_l	hip_adduction_l	hip_rotation_l	knee_angle_l	knee_angle_l_beta	ankle_angle_l	subtalar_angle_l	mtp_angle_l	lumbar_extension	lumbar_bending	lumbar_rotation	arm_flex_r	arm_add_r	arm_rot_r	elbow_flex_r	pro_sup_r	wrist_flex_r	wrist_dev_r	arm_flex_l	arm_add_l	arm_rot_l	elbow_flex_l	pro_sup_l	wrist_flex_l	wrist_dev_l
      0.00000000	     -0.74597216	     -1.89905211	     -6.54814952	     -1.23356891	      0.89730710	      1.09490876	      0.80336354	     -0.47855891	    -17.69327051	    -20.95489984	     -0.36573200	     12.93483716	      0.91066669	     -3.25005897	     30.62428163	      6.49157672	     10.21893575	    -46.72092348	     -0.81543394	      7.97922277	     18.30635559	     18.79001585	     -6.74102069	      2.27219873	      0.25908006	      5.05909919	    -13.04624787	    -17.10815155	     37.27433825	     89.95437384	      0.00000000	      0.00000000	     -5.66245395	      9.68445922	     13.86383910	     20.50049642	     89.95437384	      0.00000000	      0.00000000
      0.01000000	     -0.94223670	     -1.87315144	     -6.51756350	     -1.22524094	      0.89634586	      1.09633595	      0.25994434	     -0.42428155	    -17.80879359	    -20.67764963	     -0.36089307	     13.24914441	      0.99378576	     -3.31155491	     30.95581002	      6.52428699	     10.64959445	    -43.79408934	     -0.76435105	      7.73533133	     18.03516157	     18.65425190	     -6.61403650	      2.19678290	      0.47451756	      5.36071915	    -13.22042627	    -17.19734978	     37.86037508	     89.95437384	      0.00000000	      0.00000000	     -6.00038108	      9.74464930	     14.15227735	     20.09012369	     89.95437384	      0.00000000	      0.00000000
      0.02000000	     -1.04520256	     -1.80549693	     -6.47661855	     -1.21676231	      0.89548328	      1.09757818	     -0.30966411	     -0.48788479	    -17.95243709	    -20.63873365	     -0.36021386	     13.41325941	      1.23231096	     -3.39395398	     31.06341376	      6.49148150	     11.14439441	    -40.77404890	     -0.71164140	      7.77203220	     17.54418852	     18.14762600	     -6.60529461	      2.05787977	      0.66812831	      5.62649293	    -13.39165583	    -17.26011478	     38.45473237	     89.95437384	      0.00000000	      0.00000000	     -6.39405652	      9.77256623	     14.72256198	     19.85510415	     89.95437384	      0.00000000	      0.00000000
      0.03000000	     -1.20537099	     -1.75482948	     -6.43608492	     -1.20819800	      0.89445974	      1.09867394	     -0.80271817	     -0.57654532	    -18.29023418	    -20.58752562	     -0.35932011	     13.63906895	      1.75951250	     -3.61481718	     31.21912879	      6.47519141	     11.65607502	    -37.83539436	     -0.66035221	      7.70058673	     16.80442163	     17.14641042	     -6.50627197	      1.94566609	      0.83042484	      5.87283051	    -13.57502664	    -17.26011182	     39.00339796	     89.95437384	      0.00000000	      0.00000000	     -6.81740430	      9.75668321	     15.42059636	     19.69615997	     89.95437384	      0.00000000	      0.00000000
      0.04000000	     -1.54020446	     -1.79737959	     -6.41458183	     -1.19967421	      0.89306122	      1.09976850	     -1.08452361	     -0.49406306	    -18.32228236	    -20.61571847	     -0.35981216	     13.82074671	      1.85149060	     -3.69258310	     31.61064702	      6.59312323	     12.14288982	    -35.14713830	     -0.61343329	      7.68596692	     15.88351918	     16.62089421	     -6.21599517	      1.95000472	      1.01026310	      6.05880262	    -13.77527450	    -17.17834171	     39.52917784	     89.95437384	      0.00000000	      0.00000000	     -7.20479819	      9.78886272	     15.68071380	     19.49257003	     89.95437384	      0.00000000	      0.00000000
      0.05000000	     -1.81326551	     -1.85534629	     -6.39835010	     -1.19101851	      0.89173083	      1.10081634	     -1.41868370	     -0.42862866	    -18.43071686	    -20.64969676	     -0.36040520	     13.95064443	      2.00369188	     -3.77228438	     31.93618462	      6.74233972	     12.68967858	    -32.67689256	     -0.57031936	      7.68911483	     14.85943178	     16.09732916	     -6.00648635	      1.95944763	      1.20218527	      6.19923599	    -13.95390095	    -17.19759610	     40.06172155	     89.95437384	      0.00000000	      0.00000000	     -7.60472147	      9.82539435	     16.01908554	     19.43919043	     89.95437384	      0.00000000	      0.00000000
      0.06000000	     -2.13989115	     -1.98171870	     -6.42089619	     -1.18224331	      0.89031565	      1.10163670	     -1.70638169	     -0.31133607	    -18.55668492	    -20.72078486	     -0.36164592	     14.03710532	      2.09636997	     -3.81812874	     32.35514950	      6.96454571	     13.26210014	    -30.52165356	     -0.53270335	      7.64861384	     13.93481772	     15.71049415	     -5.72230840	      2.06350825	      1.43430893	      6.31278692	    -14.16557399	    -17.14632334	     40.51762802	     89.95437384	      0.00000000	      0.00000000	     -7.99151439	      9.78802096	     16.37788872	     19.40588664	     89.95437384	      0.00000000	      0.00000000
      0.07000000	     -2.23141809	     -1.80658972	     -6.47566460	     -1.17336719	      0.88924701	      1.10233891	     -2.15383925	     -0.59063340	    -18.54837478	    -20.90582028	     -0.36487540	     14.13410381	      2.31578354	     -3.92449007	     32.39530686	      6.94945291	     14.33883236	    -28.40690334	     -0.49579399	      7.31649698	     12.29776399	     14.94488880	     -5.67256004	      1.77612118	      1.56679540	      6.52845880	    -14.24393632	    -17.12386861	     40.87992663	     89.95437384	      0.00000000	      0.00000000	     -8.31059446	      9.79079548	     16.85590115	     19.26628816	     89.95437384	      0.00000000	      0.00000000
      0.08000000	     -2.23201031	     -1.66889578	     -6.61542869	     -1.16403002	      0.88829615	      1.10302332	     -2.71846040	     -0.91207032	    -18.79998276	    -21.10837035	     -0.36841056	     14.37148120	      2.80855938	     -4.17647805	     32.34625835	      7.10744410	     15.89956765	    -26.73042041	     -0.46653385	      6.88020252	     10.04275215	     13.70161097	     -5.67155846	      1.52939137	      1.81718532	      6.67366708	    -14.36951013	    -17.05185622	     41.14066783	     89.95437384	      0.00000000	      0.00000000	     -8.48952562	      9.73582108	     17.59325427	     18.94261667	     89.95437384	      0.00000000	      0.00000000
      0.09000000	     -2.51547665	     -1.87348973	     -6.47086232	     -1.15490732	      0.88683104	      1.10331999	     -3.02953196	     -0.72814037	    -18.85594361	    -21.29655867	     -0.37169507	     14.34025270	      2.80254625	     -4.17832989	     32.91119833	      7.33237499	     16.42047989	    -25.81799714	     -0.45060906	      6.93846084	      9.74620264	     13.49732404	     -5.39957522	      1.70646616	      1.74921239	      6.78985077	    -14.47366571	    -17.05488718	     41.42099695	     89.95437384	      0.00000000	      0.00000000	     -8.85726805	      9.72504817	     17.63516637	     18.90602643	     89.95437384	      0.00000000	      0.00000000
      0.10000000	     -2.56115558	     -1.79916214	     -6.86422470	     -1.14518540	      0.88585002	      1.10424342	     -3.47028474	     -1.04020347	    -18.72523709	    -21.66354315	     -0.37810016	     14.27849337	      3.78105309	     -5.03019176	     32.77016865	      7.87967500	     18.67226169	    -24.68147842	     -0.43077306	      5.51459398	      5.53121722	      9.45683037	     -5.32844321	      1.50756836	      2.22595925	      6.81003207	    -14.61095295	    -16.90310006	     41.62705314	     89.95437384	      0.00000000	      0.00000000	     -9.02760137	      9.55053657	     18.94175163	     18.72246513	     89.95437384	      0.00000000	      0.00000000
